<svg width="265" height="72" viewBox="0 0 265 72" fill="none" xmlns="http://www.w3.org/2000/svg">
<circle cx="234" cy="37" r="31" fill="white"/>
<g clip-path="url(#clip0)">
<path d="M247.715 37V35.881C247.715 33.2256 245.562 31.0722 242.906 31.0722H235.118V27.1556C236.432 26.6914 237.356 25.4589 237.356 24.0118C237.356 22.1744 235.867 20.6849 234.03 20.6849C232.192 20.6849 230.703 22.1744 230.703 24.0118C230.703 24.0163 230.703 24.0208 230.703 24.0254C230.709 25.4589 231.616 26.6793 232.888 27.1481L232.911 27.1556V31.0571H225.153C222.517 31.0828 220.39 33.2256 220.39 35.8659V37C217.904 37.2042 215.962 39.2713 215.962 41.7937C215.962 44.316 217.904 46.3832 220.373 46.5858L220.39 46.5873V47.7064C220.399 50.3587 222.546 52.5061 225.197 52.5151H242.906C245.559 52.5061 247.706 50.3587 247.715 47.7079V46.5873C250.201 46.3832 252.143 44.316 252.143 41.7937C252.143 39.2713 250.201 37.2042 247.732 37.0015L247.715 37ZM249.923 41.7937C249.921 43.0881 248.97 44.1587 247.729 44.3478L247.715 44.3493V39.2078C248.972 39.4059 249.923 40.4811 249.923 41.7785V41.7937ZM235.134 24.0254C235.134 24.0299 235.134 24.0344 235.134 24.0405C235.134 24.659 234.633 25.1595 234.014 25.1595C233.396 25.1595 232.895 24.659 232.895 24.0405C232.895 23.4281 233.388 22.9305 233.998 22.9215H233.999C234.008 22.9215 234.019 22.9215 234.03 22.9215C234.639 22.9215 235.134 23.416 235.134 24.0254ZM245.492 35.8659V47.6912C245.483 49.1157 244.331 50.268 242.908 50.2771H225.153C223.726 50.2771 222.567 49.1187 222.567 47.6912V35.8659C222.567 35.8613 222.567 35.8568 222.567 35.8507C222.567 34.4232 223.726 33.2649 225.153 33.2649H242.906C244.337 33.274 245.492 34.4353 245.492 35.8659ZM218.121 41.7785C218.126 40.4629 219.106 39.3787 220.376 39.2093L220.39 39.2078V44.3342C219.109 44.1708 218.127 43.0896 218.121 41.7785Z" fill="#76868D"/>
<path d="M231.445 38.8146C231.445 38.8101 231.445 38.8055 231.445 38.7995C231.445 36.9531 229.949 35.4575 228.103 35.4575C226.256 35.4575 224.761 36.9531 224.761 38.7995C224.761 40.6459 226.256 42.1414 228.103 42.1414C229.943 42.1414 231.436 40.6534 231.445 38.8161V38.8146ZM229.222 38.8146C229.222 38.8191 229.222 38.8237 229.222 38.8297C229.222 39.4482 228.721 39.9487 228.103 39.9487C227.484 39.9487 226.984 39.4482 226.984 38.8297C226.984 38.2112 227.484 37.7107 228.103 37.7107C228.715 37.7107 229.213 38.2037 229.222 38.8131V38.8146Z" fill="#76868D"/>
<path d="M239.943 35.4878C238.106 35.4878 236.616 36.9773 236.616 38.8146C236.616 40.6519 238.106 42.1414 239.943 42.1414C241.78 42.1414 243.27 40.6519 243.27 38.8146C243.261 36.9803 241.777 35.4969 239.945 35.4878H239.943ZM241.047 38.8146C241.047 39.424 240.552 39.9185 239.943 39.9185C239.334 39.9185 238.839 39.424 238.839 38.8146C238.839 38.2052 239.334 37.7107 239.943 37.7107C240.549 37.7198 241.038 38.2082 241.047 38.8131V38.8146Z" fill="#76868D"/>
<path d="M237.811 45.68C236.835 46.2562 235.66 46.5979 234.405 46.5979C234.274 46.5979 234.142 46.5934 234.012 46.5874L234.03 46.5889C233.923 46.5949 233.796 46.5979 233.669 46.5979C232.409 46.5979 231.23 46.2577 230.216 45.6634L230.248 45.6815C230.071 45.5606 229.852 45.4895 229.616 45.4895C229.262 45.4895 228.945 45.6513 228.738 45.9069L228.736 45.9084C228.606 46.0868 228.527 46.3121 228.527 46.5541C228.527 46.9049 228.691 47.2164 228.945 47.4191L228.948 47.4206C230.292 48.2871 231.933 48.8012 233.695 48.8012C233.802 48.8012 233.908 48.7997 234.014 48.7952H233.998C234.124 48.8012 234.269 48.8057 234.417 48.8057C236.15 48.8057 237.767 48.3067 239.131 47.4433L239.095 47.4644C239.358 47.2603 239.524 46.9442 239.524 46.5904C239.524 46.3515 239.448 46.1292 239.318 45.9492L239.32 45.9522C239.114 45.6755 238.788 45.4986 238.42 45.4986C238.192 45.4986 237.98 45.5666 237.805 45.6831L237.809 45.68H237.811Z" fill="#76868D"/>
</g>
<path d="M181 30.984L189.016 39L181 47.016L179.594 45.61L185.172 39.985H172.984V38.016H185.172L179.594 32.391L181 30.984Z" fill="#76868D"/>
<path d="M88.9996 47.016L80.9836 39L88.9996 30.984L90.4056 32.39L84.8276 38.015L97.0156 38.015L97.0156 39.984L84.8276 39.984L90.4056 45.609L88.9996 47.016Z" fill="#76868D"/>
<line x1="97" y1="39" x2="174" y2="39" stroke="#76868D" stroke-width="2" stroke-dasharray="6 6"/>
<circle cx="20" cy="52" r="20" fill="#E2EAEF"/>
<path d="M20 52C22.21 52 24 50.21 24 48C24 45.79 22.21 44 20 44C17.79 44 16 45.79 16 48C16 50.21 17.79 52 20 52ZM20 54C17.33 54 12 55.34 12 58V60H28V58C28 55.34 22.67 54 20 54Z" fill="#76868D"/>
<circle cx="20" cy="20" r="20" fill="#E2EAEF"/>
<path d="M20 20C22.21 20 24 18.21 24 16C24 13.79 22.21 12 20 12C17.79 12 16 13.79 16 16C16 18.21 17.79 20 20 20ZM20 22C17.33 22 12 23.34 12 26V28H28V26C28 23.34 22.67 22 20 22Z" fill="#76868D"/>
<circle cx="56" cy="20" r="20" fill="#E2EAEF"/>
<path d="M56 20C58.21 20 60 18.21 60 16C60 13.79 58.21 12 56 12C53.79 12 52 13.79 52 16C52 18.21 53.79 20 56 20ZM56 22C53.33 22 48 23.34 48 26V28H64V26C64 23.34 58.67 22 56 22Z" fill="#76868D"/>
<circle cx="56" cy="52" r="20" fill="#E2EAEF"/>
<path d="M56 52C58.21 52 60 50.21 60 48C60 45.79 58.21 44 56 44C53.79 44 52 45.79 52 48C52 50.21 53.79 52 56 52ZM56 54C53.33 54 48 55.34 48 58V60H64V58C64 55.34 58.67 54 56 54Z" fill="#76868D"/>
<defs>
<clipPath id="clip0">
<rect width="36.2927" height="36.2927" fill="white" transform="translate(215.854 20.3658)"/>
</clipPath>
</defs>
</svg>
